<svg xmlns="http://www.w3.org/2000/svg" enable-background="new 0 0 64 64" viewBox="0 0 64 64" id="blueprint">
  <path fill="#F7941E" stroke="#000" stroke-miterlimit="10" d="M14.3,13.5V47c0-6.4-11.5-6.5-11.5,0V13.5
				c0-1.6,0.7-3.1,1.7-4.1c1-1.1,2.5-1.7,4.1-1.7C11.7,7.7,14.3,10.3,14.3,13.5z"></path>
  <path fill="#FBB040" stroke="#000" stroke-miterlimit="10" d="M56,20.6H14.3V47c0-6.4-11.5-6.5-11.5,0v4.1
				c0,2.9,2.3,5.2,5.2,5.2H56c2.9,0,5.2-2.3,5.2-5.2V25.8C61.3,22.9,58.9,20.6,56,20.6z M38.6,26.1c2.4,0,4.4,2.1,4.4,4.6
				c0,2.5-2,4.6-4.4,4.6c-2.4,0-4.4-2.1-4.4-4.6C34.2,28.1,36.2,26.1,38.6,26.1z M24.7,26.1c2.4,0,4.4,2.1,4.4,4.6
				c0,2.5-2,4.6-4.4,4.6c-2.4,0-4.4-2.1-4.4-4.6C20.3,28.1,22.3,26.1,24.7,26.1z M17.3,41c0-0.9,0.7-1.6,1.6-1.6H37
				c0.9,0,1.6,0.7,1.6,1.6v0.1c0,0.9-0.7,1.6-1.6,1.6H18.9C18,42.6,17.3,42,17.3,41L17.3,41z M32,48.9c0,0.9-0.7,1.6-1.6,1.6H18.9
				c-0.9,0-1.6-0.7-1.6-1.6v-0.1c0-0.9,0.7-1.6,1.6-1.6h11.6C31.3,47.3,32,48,32,48.9L32,48.9z M56.9,48.9c0,0.9-0.7,1.6-1.6,1.6
				H37.2c-0.9,0-1.6-0.7-1.6-1.6v-0.1c0-0.9,0.7-1.6,1.6-1.6h18.2C56.2,47.3,56.9,48,56.9,48.9L56.9,48.9z M56.9,41.1
				c0,0.9-0.7,1.6-1.6,1.6H43.8c-0.9,0-1.6-0.7-1.6-1.6V41c0-0.9,0.7-1.6,1.6-1.6h11.6C56.2,39.4,56.9,40.1,56.9,41.1L56.9,41.1z
				 M52.5,35.3c-2.4,0-4.4-2.1-4.4-4.6c0-2.5,2-4.6,4.4-4.6c2.4,0,4.4,2.1,4.4,4.6C56.9,33.2,54.9,35.3,52.5,35.3z"></path>
  <path fill="#ED1C24" stroke="#000" stroke-miterlimit="10" d="M29.1 30.7c0 2.5-2 4.6-4.4 4.6-2.4 0-4.4-2.1-4.4-4.6 0-2.5 2-4.6 4.4-4.6C27.1 26.1 29.1 28.1 29.1 30.7zM43 30.7c0 2.5-2 4.6-4.4 4.6-2.4 0-4.4-2.1-4.4-4.6 0-2.5 2-4.6 4.4-4.6C41 26.1 43 28.1 43 30.7zM56.9 30.7c0 2.5-2 4.6-4.4 4.6-2.4 0-4.4-2.1-4.4-4.6 0-2.5 2-4.6 4.4-4.6C54.9 26.1 56.9 28.1 56.9 30.7z"></path>
  <path fill="#009444" stroke="#000" stroke-miterlimit="10" d="M56.9 41L56.9 41c0 1-.7 1.6-1.6 1.6H43.8c-.9 0-1.6-.7-1.6-1.6V41c0-.9.7-1.6 1.6-1.6h11.6C56.2 39.4 56.9 40.1 56.9 41zM38.6 41L38.6 41c0 1-.7 1.6-1.6 1.6H18.9c-.9 0-1.6-.7-1.6-1.6V41c0-.9.7-1.6 1.6-1.6H37C37.9 39.4 38.6 40.1 38.6 41z"></path>
  <path fill="#39B54A" stroke="#000" stroke-miterlimit="10" d="M32 48.8L32 48.8c0 1-.7 1.6-1.6 1.6H18.9c-.9 0-1.6-.7-1.6-1.6v-.1c0-.9.7-1.6 1.6-1.6h11.6C31.3 47.3 32 48 32 48.8zM56.9 48.8L56.9 48.8c0 1-.7 1.6-1.6 1.6H37.2c-.9 0-1.6-.7-1.6-1.6v-.1c0-.9.7-1.6 1.6-1.6h18.2C56.2 47.3 56.9 48 56.9 48.8z"></path>
</svg>
